<svg width="18" height="22" viewBox="0 0 18 22" fill="none" xmlns="http://www.w3.org/2000/svg">
<g clip-path="url(#clip0_548_840)">
<path d="M13.4476 0C13.5441 1.77114 12.8291 3.17811 11.4942 4.29617C10.8395 4.84542 10.0793 5.11628 9.21495 5.08618C9.02188 5.08016 8.95551 5.02599 8.95551 4.82886C8.96305 2.87114 9.90279 1.48222 11.5726 0.538714C12.0372 0.276881 12.541 0.112859 13.0599 0L13.4476 0Z" fill="black"/>
<path d="M0.00450972 12.0278C-1.55434e-05 10.2205 0.411784 8.70368 1.43449 7.39451C2.40441 6.15156 3.68958 5.45033 5.27041 5.33295C5.84059 5.29082 6.39569 5.41722 6.93873 5.59178C7.36259 5.72721 7.78344 5.87016 8.1877 6.05676C8.79861 6.33665 9.38991 6.33213 10.0129 6.0703C10.7641 5.75279 11.5289 5.43377 12.3479 5.348C14.3375 5.13733 16.0466 5.67605 17.3137 7.31175C17.4328 7.46524 17.4042 7.54499 17.2518 7.64732C16.576 8.09875 16.0043 8.65252 15.6061 9.3688C15.1279 10.228 15.0269 11.1565 15.1023 12.1135C15.1913 13.2361 15.6076 14.2217 16.4146 15.0223C16.834 15.4376 17.3197 15.7702 17.8507 16.0305C17.9774 16.0922 18.0362 16.1569 17.9804 16.3119C17.3302 18.1221 16.3483 19.7293 15.0254 21.1242C14.5653 21.6087 13.9906 21.9142 13.3088 21.9729C12.8668 22.012 12.4354 21.9413 12.0176 21.8059C11.5077 21.6388 11.0084 21.4342 10.4956 21.2777C9.61919 21.0098 8.75487 21.1046 7.90261 21.4131C7.4184 21.5892 6.94174 21.7863 6.44095 21.9172C5.7154 22.1068 5.0532 21.9774 4.43475 21.5636C3.96412 21.2491 3.57494 20.8488 3.22047 20.4169C1.60193 18.4321 0.54905 16.1915 0.152335 13.6574C0.0588129 13.0646 -0.019625 12.4687 0.00601815 12.0278H0.00450972Z" fill="black"/>
</g>
<defs>
<clipPath id="clip0_548_840">
<rect width="18" height="22" fill="white"/>
</clipPath>
</defs>
</svg>
