<svg width="21" height="22" viewBox="0 0 21 22" fill="none" xmlns="http://www.w3.org/2000/svg">
<g clip-path="url(#clip0_548_994)">
<path d="M1.17132 5.88558C1.61136 5.00664 2.17486 4.1874 2.86658 3.43616C5.19816 0.903823 8.06316 -0.232164 11.4157 0.0398097C13.5035 0.208964 15.3634 1.01162 17.0112 2.36153C17.2169 2.53069 17.2153 2.54727 17.0127 2.7214C16.0345 3.56054 15.0563 4.39802 14.0781 5.23716C13.7441 5.5224 13.8343 5.48591 13.4829 5.28857C12.185 4.55391 10.8063 4.3151 9.35795 4.602C7.08178 5.05473 5.33587 6.71477 4.62199 8.85075L1.16974 5.8889" fill="#FF2E29"/>
<path d="M4.62199 8.84907C4.31175 9.77611 4.1962 10.7927 4.31808 11.8391C4.37348 12.3068 4.47637 12.7595 4.62516 13.1924L1.2014 16.1492C0.788272 15.335 0.471697 14.456 0.26434 13.534C0.140876 12.9834 0.0807266 12.4212 0 11.864V10.1459C0.0110801 10.0829 0.0269089 10.0215 0.0332404 9.95687C0.175699 8.49087 0.549258 7.12934 1.16974 5.89053" fill="#FCB72D"/>
<path d="M17.1109 19.5572C15.9538 20.5473 14.5941 21.2836 13.1094 21.6733C12.519 21.8292 11.9175 21.9121 11.316 22H9.67613C9.41337 21.9618 9.14903 21.9287 8.88628 21.8856C5.56382 21.3532 2.73206 19.1774 1.203 16.1492L4.62676 13.1907C5.4641 15.6434 7.7007 17.4444 10.2491 17.5157C11.5202 17.5506 12.6551 17.2587 13.6476 16.6385L17.1109 19.5555V19.5572Z" fill="#4ADB42"/>
<path d="M20.9193 12.3881C20.5916 15.2272 19.1734 17.7927 17.1109 19.5572L13.6476 16.6401C14.2902 16.2405 14.8727 15.7032 15.3935 15.0332C15.7401 14.5871 16.0139 14.0912 16.2261 13.5589C16.3068 13.3549 16.2894 13.3284 16.0725 13.3234C16.0045 13.3217 15.9364 13.3234 15.8683 13.3234C14.249 13.3234 12.6298 13.3234 11.0105 13.3234C10.7319 13.3234 10.7066 13.2969 10.7066 13.0033C10.705 11.7513 10.705 10.4992 10.7066 9.24545C10.7066 8.96187 10.7287 8.94031 10.9994 8.94031C14.1762 8.94031 17.3531 8.94031 20.5299 8.94031C20.8101 8.94031 20.8227 8.95192 20.8686 9.24711C21.0285 10.2919 21.0443 11.34 20.9224 12.3914L20.9193 12.3881Z" fill="#5089F9"/>
</g>
<defs>
<clipPath id="clip0_548_994">
<rect width="21" height="22" fill="white"/>
</clipPath>
</defs>
</svg>
