<svg width="20" height="21" viewBox="0 0 20 21" fill="none" xmlns="http://www.w3.org/2000/svg">
<mask id="path-1-inside-1_480_1081" fill="white">
<path d="M16.6667 5.58417V4.66667C16.6667 2.36917 14.7975 0.5 12.5 0.5H7.5C5.2025 0.5 3.33333 2.36917 3.33333 4.66667V5.58417C1.43417 5.97167 0 7.655 0 9.66667V16.3333C0 18.6308 1.86917 20.5 4.16667 20.5H15.8333C18.1308 20.5 20 18.6308 20 16.3333V9.66667C20 7.655 18.5658 5.97083 16.6667 5.58417ZM1.66667 16.3333V9.66667C1.66667 8.58 2.36333 7.65417 3.33333 7.31V18.69C2.36333 18.3458 1.66667 17.42 1.66667 16.3333ZM5 4.66667C5 3.28833 6.12167 2.16667 7.5 2.16667H12.5C13.8783 2.16667 15 3.28833 15 4.66667V18.8333H5V4.66667ZM18.3333 16.3333C18.3333 17.42 17.6367 18.3458 16.6667 18.69V7.31C17.6367 7.65417 18.3333 8.58 18.3333 9.66667V16.3333ZM9.16667 12.1667C9.16667 12.6267 8.79417 13 8.33333 13H7.5C7.03917 13 6.66667 12.6267 6.66667 12.1667C6.66667 11.7067 7.03917 11.3333 7.5 11.3333H8.33333C8.79417 11.3333 9.16667 11.7067 9.16667 12.1667ZM13.3333 12.1667C13.3333 12.6267 12.9608 13 12.5 13H11.6667C11.2058 13 10.8333 12.6267 10.8333 12.1667C10.8333 11.7067 11.2058 11.3333 11.6667 11.3333H12.5C12.9608 11.3333 13.3333 11.7067 13.3333 12.1667ZM9.16667 15.5C9.16667 15.96 8.79417 16.3333 8.33333 16.3333H7.5C7.03917 16.3333 6.66667 15.96 6.66667 15.5C6.66667 15.04 7.03917 14.6667 7.5 14.6667H8.33333C8.79417 14.6667 9.16667 15.04 9.16667 15.5ZM13.3333 15.5C13.3333 15.96 12.9608 16.3333 12.5 16.3333H11.6667C11.2058 16.3333 10.8333 15.96 10.8333 15.5C10.8333 15.04 11.2058 14.6667 11.6667 14.6667H12.5C12.9608 14.6667 13.3333 15.04 13.3333 15.5ZM10.8333 8C10.8333 8.46 10.4608 8.83333 10 8.83333C9.53917 8.83333 9.16667 8.46 9.16667 8V7.16667H8.33333C7.8725 7.16667 7.5 6.79333 7.5 6.33333C7.5 5.87333 7.8725 5.5 8.33333 5.5H9.16667V4.66667C9.16667 4.20667 9.53917 3.83333 10 3.83333C10.4608 3.83333 10.8333 4.20667 10.8333 4.66667V5.5H11.6667C12.1275 5.5 12.5 5.87333 12.5 6.33333C12.5 6.79333 12.1275 7.16667 11.6667 7.16667H10.8333V8Z"/>
</mask>
<path d="M16.6667 5.58417H-4.66667V23.0117L12.4106 26.4886L16.6667 5.58417ZM3.33333 5.58417L7.59825 26.4868L24.6667 23.0042V5.58417H3.33333ZM3.33333 7.31H24.6667V-22.8957L-3.80025 -12.7953L3.33333 7.31ZM3.33333 18.69L-3.80025 38.7953L24.6667 48.8957V18.69H3.33333ZM15 18.8333V40.1667H36.3333V18.8333H15ZM5 18.8333H-16.3333V40.1667H5V18.8333ZM16.6667 18.69H-4.66667V48.8957L23.8003 38.7953L16.6667 18.69ZM16.6667 7.31L23.8003 -12.7953L-4.66667 -22.8957V7.31H16.6667ZM9.16667 7.16667H30.5V-14.1667H9.16667V7.16667ZM9.16667 5.5V26.8333H30.5V5.5H9.16667ZM10.8333 5.5H-10.5V26.8333H10.8333V5.5ZM10.8333 7.16667V-14.1667H-10.5V7.16667H10.8333ZM38 5.58417V4.66667H-4.66667V5.58417H38ZM38 4.66667C38 -9.41291 26.5796 -20.8333 12.5 -20.8333V21.8333C3.01543 21.8333 -4.66667 14.1512 -4.66667 4.66667H38ZM12.5 -20.8333H7.5V21.8333H12.5V-20.8333ZM7.5 -20.8333C-6.57958 -20.8333 -18 -9.41291 -18 4.66667H24.6667C24.6667 14.1512 16.9846 21.8333 7.5 21.8333V-20.8333ZM-18 4.66667V5.58417H24.6667V4.66667H-18ZM-0.931582 -15.3185C-12.5424 -12.9495 -21.3333 -2.70776 -21.3333 9.66667H21.3333C21.3333 18.0178 15.4107 24.8928 7.59825 26.4868L-0.931582 -15.3185ZM-21.3333 9.66667V16.3333H21.3333V9.66667H-21.3333ZM-21.3333 16.3333C-21.3333 30.4129 -9.9129 41.8333 4.16667 41.8333V-0.833334C13.6512 -0.833334 21.3333 6.84875 21.3333 16.3333H-21.3333ZM4.16667 41.8333H15.8333V-0.833334H4.16667V41.8333ZM15.8333 41.8333C29.9129 41.8333 41.3333 30.4129 41.3333 16.3333H-1.33333C-1.33333 6.84876 6.34876 -0.833334 15.8333 -0.833334V41.8333ZM41.3333 16.3333V9.66667H-1.33333V16.3333H41.3333ZM41.3333 9.66667C41.3333 -2.7009 32.5479 -12.9534 20.9228 -15.3203L12.4106 26.4886C4.58375 24.8951 -1.33333 18.0109 -1.33333 9.66667H41.3333ZM23 16.3333V9.66667H-19.6667V16.3333H23ZM23 9.66667C23 17.9264 17.7088 24.8458 10.4669 27.4153L-3.80025 -12.7953C-12.9821 -9.53748 -19.6667 -0.766411 -19.6667 9.66667H23ZM-18 7.31V18.69H24.6667V7.31H-18ZM10.4669 -1.4153C17.7087 1.15418 23 8.07358 23 16.3333H-19.6667C-19.6667 26.7664 -12.9821 35.5375 -3.80025 38.7953L10.4669 -1.4153ZM26.3333 4.66667C26.3333 15.0704 17.9037 23.5 7.5 23.5V-19.1667C-5.66041 -19.1667 -16.3333 -8.49374 -16.3333 4.66667H26.3333ZM7.5 23.5H12.5V-19.1667H7.5V23.5ZM12.5 23.5C2.09626 23.5 -6.33333 15.0704 -6.33333 4.66667H36.3333C36.3333 -8.49374 25.6604 -19.1667 12.5 -19.1667V23.5ZM-6.33333 4.66667V18.8333H36.3333V4.66667H-6.33333ZM15 -2.5H5V40.1667H15V-2.5ZM26.3333 18.8333V4.66667H-16.3333V18.8333H26.3333ZM-3 16.3333C-3 8.07358 2.29124 1.15418 9.53309 -1.4153L23.8003 38.7953C32.9821 35.5375 39.6667 26.7664 39.6667 16.3333H-3ZM38 18.69V7.31H-4.66667V18.69H38ZM9.53309 27.4153C2.29123 24.8458 -3 17.9264 -3 9.66667H39.6667C39.6667 -0.766403 32.9821 -9.53748 23.8003 -12.7953L9.53309 27.4153ZM-3 9.66667V16.3333H39.6667V9.66667H-3ZM-12.1667 12.1667C-12.1667 0.858466 -3.00178 -8.33333 8.33333 -8.33333V34.3333C20.5901 34.3333 30.5 24.3949 30.5 12.1667H-12.1667ZM8.33333 -8.33333H7.5V34.3333H8.33333V-8.33333ZM7.5 -8.33333C18.8351 -8.33333 28 0.858466 28 12.1667H-14.6667C-14.6667 24.3949 -4.75678 34.3333 7.5 34.3333V-8.33333ZM28 12.1667C28 23.4748 18.8352 32.6667 7.5 32.6667V-10C-4.75682 -10 -14.6667 -0.0614854 -14.6667 12.1667H28ZM7.5 32.6667H8.33333V-10H7.5V32.6667ZM8.33333 32.6667C-3.00182 32.6667 -12.1667 23.4748 -12.1667 12.1667H30.5C30.5 -0.0614854 20.5902 -10 8.33333 -10V32.6667ZM-8 12.1667C-8 0.858441 1.16491 -8.33333 12.5 -8.33333V34.3333C24.7568 34.3333 34.6667 24.3949 34.6667 12.1667H-8ZM12.5 -8.33333H11.6667V34.3333H12.5V-8.33333ZM11.6667 -8.33333C23.0018 -8.33333 32.1667 0.858441 32.1667 12.1667H-10.5C-10.5 24.3949 -0.590084 34.3333 11.6667 34.3333V-8.33333ZM32.1667 12.1667C32.1667 23.4748 23.0018 32.6667 11.6667 32.6667V-10C-0.590133 -10 -10.5 -0.0615098 -10.5 12.1667H32.1667ZM11.6667 32.6667H12.5V-10H11.6667V32.6667ZM12.5 32.6667C1.16487 32.6667 -8 23.4748 -8 12.1667H34.6667C34.6667 -0.0615098 24.7568 -10 12.5 -10V32.6667ZM-12.1667 15.5C-12.1667 4.19185 -3.00182 -5 8.33333 -5V37.6667C20.5902 37.6667 30.5 27.7282 30.5 15.5H-12.1667ZM8.33333 -5H7.5V37.6667H8.33333V-5ZM7.5 -5C18.8352 -5 28 4.19185 28 15.5H-14.6667C-14.6667 27.7282 -4.75682 37.6667 7.5 37.6667V-5ZM28 15.5C28 26.8082 18.8351 36 7.5 36V-6.66667C-4.75678 -6.66667 -14.6667 3.2718 -14.6667 15.5H28ZM7.5 36H8.33333V-6.66667H7.5V36ZM8.33333 36C-3.00178 36 -12.1667 26.8082 -12.1667 15.5H30.5C30.5 3.2718 20.5901 -6.66667 8.33333 -6.66667V36ZM-8 15.5C-8 4.19182 1.16487 -5 12.5 -5V37.6667C24.7568 37.6667 34.6667 27.7282 34.6667 15.5H-8ZM12.5 -5H11.6667V37.6667H12.5V-5ZM11.6667 -5C23.0018 -5 32.1667 4.19182 32.1667 15.5H-10.5C-10.5 27.7282 -0.590133 37.6667 11.6667 37.6667V-5ZM32.1667 15.5C32.1667 26.8082 23.0018 36 11.6667 36V-6.66667C-0.590084 -6.66667 -10.5 3.27177 -10.5 15.5H32.1667ZM11.6667 36H12.5V-6.66667H11.6667V36ZM12.5 36C1.16491 36 -8 26.8082 -8 15.5H34.6667C34.6667 3.27177 24.7568 -6.66667 12.5 -6.66667V36ZM-10.5 8C-10.5 -3.30818 -1.33513 -12.5 10 -12.5V30.1667C22.2568 30.1667 32.1667 20.2282 32.1667 8H-10.5ZM10 -12.5C21.3352 -12.5 30.5 -3.30815 30.5 8H-12.1667C-12.1667 20.2282 -2.25683 30.1667 10 30.1667V-12.5ZM30.5 8V7.16667H-12.1667V8H30.5ZM9.16667 -14.1667H8.33333V28.5H9.16667V-14.1667ZM8.33333 -14.1667C19.6684 -14.1667 28.8333 -4.97487 28.8333 6.33333H-13.8333C-13.8333 18.5615 -3.92344 28.5 8.33333 28.5V-14.1667ZM28.8333 6.33333C28.8333 17.6415 19.6685 26.8333 8.33333 26.8333V-15.8333C-3.92347 -15.8333 -13.8333 -5.89484 -13.8333 6.33333H28.8333ZM8.33333 26.8333H9.16667V-15.8333H8.33333V26.8333ZM30.5 5.5V4.66667H-12.1667V5.5H30.5ZM30.5 4.66667C30.5 15.9748 21.3351 25.1667 10 25.1667V-17.5C-2.25681 -17.5 -12.1667 -7.5615 -12.1667 4.66667H30.5ZM10 25.1667C-1.33512 25.1667 -10.5 15.9749 -10.5 4.66667H32.1667C32.1667 -7.56152 22.2568 -17.5 10 -17.5V25.1667ZM-10.5 4.66667V5.5H32.1667V4.66667H-10.5ZM10.8333 26.8333H11.6667V-15.8333H10.8333V26.8333ZM11.6667 26.8333C0.331485 26.8333 -8.83333 17.6415 -8.83333 6.33333H33.8333C33.8333 -5.89479 23.9235 -15.8333 11.6667 -15.8333V26.8333ZM-8.83333 6.33333C-8.83333 -4.97482 0.331509 -14.1667 11.6667 -14.1667V28.5C23.9235 28.5 33.8333 18.5615 33.8333 6.33333H-8.83333ZM11.6667 -14.1667H10.8333V28.5H11.6667V-14.1667ZM-10.5 7.16667V8H32.1667V7.16667H-10.5Z" fill="#A37D50" mask="url(#path-1-inside-1_480_1081)"/>
</svg>
