<svg width="42" height="40" viewBox="0 0 42 40" fill="none" xmlns="http://www.w3.org/2000/svg">
<path d="M0 20.0256C0.221311 19.9875 0.442623 19.9352 0.663934 19.9115C4.13115 19.5501 7.35738 18.4947 10.2934 16.6785C15.7426 13.3028 19.1557 8.53892 20.5377 2.42475C20.6951 1.73536 20.8131 1.03646 20.8672 0.328054C20.877 0.223457 20.8574 0.109351 20.9852 0C21.1279 0.109351 21.0836 0.275756 21.1033 0.408879C21.1279 0.584792 21.1377 0.760706 21.1623 0.936619C21.182 1.08876 21.2115 1.2409 21.241 1.39304C21.2705 1.56896 21.3 1.74011 21.3295 1.91603C21.3541 2.06817 21.3787 2.22031 21.4131 2.37245C21.4426 2.52459 21.482 2.67673 21.5213 2.82412C21.5607 2.99528 21.6049 3.16644 21.6492 3.3376C21.6885 3.48974 21.7279 3.63712 21.7721 3.78451C21.8213 3.95567 21.8705 4.12683 21.9197 4.29323C21.9639 4.44062 22.0131 4.58801 22.0574 4.73539C22.1115 4.9018 22.1705 5.07296 22.2295 5.23936C22.2787 5.38675 22.3328 5.52938 22.3918 5.67676C22.4459 5.8194 22.5049 5.96678 22.5639 6.10942C22.6328 6.27582 22.7016 6.43747 22.7705 6.59912C22.8344 6.74175 22.8984 6.88439 22.9623 7.02702C23.0361 7.18867 23.1148 7.35032 23.1934 7.50721C23.2623 7.64509 23.3361 7.78297 23.4049 7.92085C23.4787 8.05872 23.5475 8.1966 23.6262 8.33448C23.7098 8.49138 23.7984 8.64352 23.8918 8.80041C23.9705 8.93354 24.0541 9.06666 24.1328 9.19978C24.2262 9.35192 24.3197 9.50407 24.418 9.65145C24.5016 9.78458 24.5902 9.91294 24.6787 10.0413C24.7672 10.1697 24.8557 10.2981 24.9443 10.4264C25.0475 10.5738 25.1508 10.7164 25.259 10.8591C25.3525 10.9827 25.4459 11.1111 25.5443 11.2347C25.6525 11.3773 25.7656 11.5152 25.8787 11.6531C25.977 11.7767 26.0803 11.8955 26.1836 12.0144C26.3016 12.1523 26.4197 12.2854 26.5377 12.4185C26.641 12.5374 26.7492 12.6515 26.8574 12.7656C26.9656 12.8797 27.0738 12.9938 27.182 13.1079C27.3098 13.2363 27.4377 13.3599 27.5656 13.4883C27.6787 13.5976 27.7918 13.707 27.9049 13.8163C28.0377 13.9399 28.1705 14.0588 28.3033 14.1824C28.4213 14.287 28.5393 14.3916 28.6574 14.4962C28.7754 14.6008 28.8984 14.7006 29.0213 14.8005C29.159 14.9146 29.3016 15.0287 29.4443 15.138C29.5672 15.2331 29.6951 15.333 29.8229 15.4281C29.9656 15.5374 30.1131 15.642 30.2607 15.7466C30.3885 15.8369 30.5213 15.9273 30.6492 16.0176C30.7967 16.1174 30.9492 16.2173 31.1016 16.3171C31.2344 16.4027 31.3672 16.4883 31.5049 16.5691C31.6377 16.6547 31.7754 16.7355 31.9131 16.8163C32.0705 16.9067 32.2279 16.997 32.3852 17.0873C32.5229 17.1634 32.6607 17.2442 32.8033 17.3156C32.9656 17.4011 33.123 17.482 33.2852 17.5628C33.4279 17.6341 33.5705 17.7007 33.7131 17.7672C33.8557 17.8338 33.9984 17.9051 34.1459 17.9717C34.3131 18.0477 34.4803 18.1143 34.6475 18.1856C34.7951 18.2474 34.9377 18.314 35.0852 18.371C35.2525 18.4376 35.4246 18.4994 35.5967 18.5612C35.7443 18.6183 35.8967 18.6706 36.0443 18.7229C36.1967 18.7752 36.3443 18.8275 36.4967 18.8798C36.6688 18.9368 36.841 18.9939 37.018 19.0462C37.1705 19.0937 37.3229 19.1365 37.4803 19.1793C37.6574 19.2268 37.8344 19.2744 38.0115 19.3172C38.1639 19.3552 38.3213 19.3932 38.4787 19.4313C38.6557 19.4693 38.8328 19.5121 39.0148 19.5454C39.1721 19.5787 39.3295 19.6024 39.4869 19.631C39.6443 19.6595 39.8016 19.6975 39.959 19.7213C40.141 19.7498 40.3229 19.7736 40.5 19.7974C40.6574 19.8211 40.8148 19.8449 40.977 19.8592C41.159 19.8782 41.341 19.8829 41.5229 19.9162C41.6754 19.94 41.8426 19.9447 42 20.0589C41.5377 20.1159 41.0951 20.1682 40.6574 20.2253C36.9836 20.7055 33.6295 21.9796 30.6197 24.0668C25.7656 27.4329 22.7066 31.9591 21.4377 37.6026C21.2656 38.3586 21.1525 39.124 21.0836 39.8943C21.0836 39.9323 21.0492 39.9846 21.0148 39.9941C20.9164 40.0226 20.9016 39.9418 20.8918 39.88C20.7885 38.8198 20.5967 37.7785 20.3311 36.7468C18.4033 29.1826 12.3934 23.1159 4.65246 20.9099C3.13279 20.4772 1.58852 20.1967 0.00491803 19.997L0 20.0256ZM12.6836 20.0446C12.6393 24.3426 16.2148 28.0748 20.9311 28.0986C25.7459 28.1223 29.2525 24.3236 29.282 20.1349C29.3115 15.7989 25.6967 12.0905 21.0639 12.0429C16.4508 11.9954 12.6787 15.6135 12.6836 20.0398V20.0446Z" fill="black"/>
</svg>
