<svg width="189" height="31" viewBox="0 0 189 31" fill="none" xmlns="http://www.w3.org/2000/svg">
<g clip-path="url(#clip0_462_2515)">
<path d="M127.609 18.5824C128.458 19.0464 129.273 19.4883 130.069 19.9413C130.005 20.1622 129.876 20.3058 129.762 20.4568C128.705 21.8672 127.318 22.81 125.567 23.2261C123.691 23.6717 121.811 23.6533 119.999 22.9904C117.202 21.9667 115.516 19.9854 114.977 17.1241C114.712 15.7063 114.788 14.2885 115.224 12.9038C115.94 10.6243 118.097 8.10174 121.674 7.67456C122.88 7.53094 124.066 7.56409 125.237 7.88079C126.344 8.18276 127.318 8.72042 128.144 9.49376C129.512 10.7716 130.35 12.3146 130.645 14.1412C130.763 14.874 130.767 15.6069 130.721 16.3434C130.717 16.4281 130.706 16.5128 130.691 16.5975C130.653 16.8111 130.6 16.8589 130.38 16.87C130.206 16.8773 130.028 16.8737 129.849 16.8737C126.093 16.8737 122.338 16.8737 118.585 16.8737C117.812 16.8737 117.809 16.8405 118.074 17.566C118.635 19.0943 119.753 20.0701 121.341 20.5305C122.459 20.8545 123.603 20.8693 124.74 20.6188C125.828 20.3795 126.711 19.8124 127.359 18.9138C127.428 18.8181 127.5 18.7223 127.606 18.5787L127.609 18.5824ZM122.804 14.34C124.248 14.34 125.692 14.34 127.136 14.34C127.276 14.34 127.416 14.34 127.556 14.329C127.655 14.3216 127.712 14.2553 127.697 14.1522C127.663 13.8613 127.572 13.5851 127.469 13.3126C126.897 11.777 125.786 10.8232 124.157 10.4328C123.55 10.2892 122.94 10.2855 122.319 10.3371C120.147 10.5138 118.521 11.9169 117.979 13.8392C117.846 14.3069 117.869 14.3437 118.358 14.3437C119.836 14.3437 121.318 14.3437 122.796 14.3437L122.804 14.34Z" fill="black"/>
<path d="M0 15.5076C0.17055 15.4782 0.341101 15.4377 0.511651 15.4192C3.1836 15.1394 5.66985 14.3218 7.93248 12.9151C12.1318 10.3005 14.7621 6.6105 15.8271 1.8747C15.9483 1.34073 16.0393 0.799385 16.081 0.25068C16.0886 0.169664 16.0734 0.0812815 16.172 -0.00341797C16.2819 0.0812815 16.2478 0.210172 16.2629 0.313284C16.2819 0.44954 16.2894 0.585796 16.3084 0.722051C16.3236 0.839894 16.3463 0.957737 16.369 1.07558C16.3918 1.21184 16.4145 1.34441 16.4373 1.48066C16.4562 1.59851 16.4752 1.71635 16.5017 1.83419C16.5244 1.95203 16.5547 2.06988 16.5851 2.18404C16.6154 2.31661 16.6495 2.44918 16.6836 2.58176C16.7139 2.6996 16.7442 2.81376 16.7784 2.92792C16.8163 3.06049 16.8542 3.19307 16.8921 3.32196C16.9262 3.43612 16.9641 3.55028 16.9982 3.66444C17.0399 3.79333 17.0853 3.9259 17.1308 4.05479C17.1687 4.16895 17.2104 4.27943 17.2559 4.39359C17.2976 4.50407 17.3431 4.61823 17.3885 4.7287C17.4416 4.85759 17.4947 4.9828 17.5477 5.10801C17.597 5.21849 17.6463 5.32897 17.6955 5.43944C17.7524 5.56465 17.813 5.68986 17.8737 5.81138C17.9267 5.91818 17.9836 6.02497 18.0366 6.13177C18.0935 6.23856 18.1465 6.34536 18.2072 6.45215C18.2716 6.57368 18.3398 6.69152 18.4118 6.81305C18.4725 6.91616 18.5369 7.01927 18.5976 7.12238C18.6696 7.24023 18.7416 7.35807 18.8174 7.47223C18.8818 7.57534 18.95 7.67477 19.0182 7.7742C19.0865 7.87363 19.1547 7.97306 19.2229 8.07249C19.3025 8.18665 19.3821 8.29713 19.4655 8.40761C19.5375 8.50335 19.6095 8.60278 19.6853 8.69853C19.7687 8.80901 19.8558 8.9158 19.943 9.0226C20.0188 9.11834 20.0984 9.21041 20.178 9.30247C20.269 9.40927 20.3599 9.51238 20.4509 9.61549C20.5305 9.70756 20.6138 9.79594 20.6972 9.88432C20.7806 9.9727 20.864 10.0611 20.9474 10.1495C21.0459 10.2489 21.1444 10.3446 21.243 10.4441C21.3302 10.5288 21.4173 10.6135 21.5045 10.6982C21.6068 10.7939 21.7092 10.886 21.8115 10.9817C21.9024 11.0627 21.9934 11.1438 22.0844 11.2248C22.1753 11.3058 22.2701 11.3831 22.3648 11.4605C22.4709 11.5489 22.5809 11.6372 22.6908 11.7219C22.7855 11.7956 22.8841 11.8729 22.9826 11.9466C23.0925 12.0313 23.2062 12.1123 23.3199 12.1933C23.4184 12.2633 23.5208 12.3332 23.6193 12.4032C23.733 12.4805 23.8505 12.5579 23.968 12.6352C24.0703 12.7015 24.1727 12.7678 24.2788 12.8304C24.3811 12.8967 24.4872 12.9593 24.5933 13.0219C24.7146 13.0919 24.8359 13.1618 24.9572 13.2318C25.0633 13.2907 25.1694 13.3533 25.2793 13.4086C25.4044 13.4748 25.5257 13.5374 25.6508 13.6C25.7607 13.6553 25.8706 13.7068 25.9805 13.7584C26.0904 13.81 26.2003 13.8652 26.314 13.9168C26.4429 13.9757 26.5717 14.0272 26.7006 14.0825C26.8143 14.1303 26.9242 14.1819 27.0379 14.2261C27.1668 14.2776 27.2994 14.3255 27.4321 14.3734C27.5458 14.4176 27.6633 14.4581 27.777 14.4986C27.8944 14.5391 28.0081 14.5796 28.1256 14.6201C28.2583 14.6643 28.3909 14.7085 28.5274 14.749C28.6449 14.7858 28.7624 14.819 28.8836 14.8521C29.0201 14.889 29.1565 14.9258 29.293 14.9589C29.4104 14.9884 29.5317 15.0178 29.653 15.0473C29.7894 15.0768 29.9259 15.1099 30.0661 15.1357C30.1874 15.1615 30.3087 15.1799 30.43 15.202C30.5512 15.2241 30.6725 15.2535 30.7938 15.2719C30.934 15.294 31.0743 15.3125 31.2107 15.3309C31.332 15.3493 31.4533 15.3677 31.5783 15.3787C31.7186 15.3935 31.8588 15.3972 31.999 15.4229C32.1165 15.4413 32.2454 15.445 32.3666 15.5334C32.0104 15.5776 31.6693 15.6181 31.332 15.6623C28.5008 16.0342 25.9161 17.0212 23.5966 18.6378C19.8558 21.2451 17.4985 24.7509 16.5206 29.1221C16.388 29.7077 16.3008 30.3006 16.2478 30.8972C16.2478 30.9266 16.2212 30.9671 16.1947 30.9745C16.1189 30.9966 16.1075 30.934 16.0999 30.8861C16.0204 30.0649 15.8725 29.2584 15.6679 28.4593C14.1822 22.6003 9.55081 17.9013 3.58535 16.1926C2.41423 15.8575 1.22417 15.6402 0.00379001 15.4855L0 15.5076ZM9.77443 15.5224C9.74032 18.8514 12.4956 21.7422 16.1303 21.7607C19.8407 21.7791 22.543 18.8367 22.5657 15.5923C22.5884 12.2338 19.8028 9.36139 16.2326 9.32457C12.6776 9.28774 9.77064 12.0902 9.77443 15.5187V15.5224Z" fill="black"/>
<path d="M159.635 14.1889C159.635 16.1591 159.635 18.1293 159.635 20.0958C159.635 20.6777 159.605 20.6666 160.204 20.6666C160.628 20.6666 161.049 20.6666 161.473 20.6703C161.648 20.6703 161.704 20.7255 161.708 20.8802C161.712 21.532 161.712 22.1802 161.708 22.832C161.708 22.9903 161.651 23.0345 161.477 23.0456C161.371 23.0529 161.265 23.0529 161.159 23.0529C160.029 23.0529 158.904 23.0529 157.774 23.0529C157.668 23.0529 157.562 23.0529 157.456 23.0456C157.293 23.0308 157.236 22.983 157.228 22.8209C157.221 22.6 157.221 22.3753 157.221 22.1544C157.221 21.9666 157.221 21.7788 157.221 21.5909C157.221 21.5062 157.244 21.3921 157.164 21.3553C157.039 21.2963 156.99 21.4326 156.929 21.5026C155.985 22.53 154.795 23.0971 153.408 23.3218C152.309 23.4985 151.225 23.4507 150.175 23.0934C148.382 22.4858 147.158 21.3111 146.741 19.4956C145.991 16.2291 148.174 14.1079 150.41 13.4598C150.952 13.3014 151.509 13.2241 152.078 13.2241C153.454 13.2241 154.826 13.2241 156.201 13.2204C157.054 13.2204 156.952 13.3014 156.955 12.4729C156.959 11.8726 156.955 11.2723 156.955 10.6758C156.955 10.5911 156.952 10.5064 156.94 10.4217C156.929 10.3222 156.861 10.2707 156.762 10.267C156.603 10.2596 156.444 10.2596 156.288 10.2596C153.609 10.2596 150.929 10.2596 148.254 10.2596C147.602 10.2596 147.655 10.3149 147.651 9.68515C147.651 9.12171 147.651 8.55459 147.651 7.99116C147.651 7.78862 147.7 7.74442 147.894 7.73338C148.015 7.72601 148.14 7.72969 148.265 7.72969C151.843 7.72969 155.421 7.72969 158.998 7.72969C159.665 7.72969 159.627 7.67814 159.631 8.341C159.631 10.2928 159.631 12.2445 159.631 14.1963L159.635 14.1889ZM154.503 15.5957C153.817 15.5957 153.131 15.5846 152.445 15.5994C151.589 15.6178 150.831 15.8903 150.19 16.4648C149.095 17.4444 149.152 19.1678 150.13 20.1032C150.596 20.5488 151.145 20.836 151.782 20.9539C152.866 21.1527 153.92 21.0165 154.943 20.6372C155.356 20.4825 155.728 20.2542 156.061 19.9669C156.611 19.4845 156.929 18.8879 156.952 18.1698C156.978 17.4002 156.963 16.6305 156.959 15.8608C156.959 15.6325 156.918 15.5994 156.671 15.5957C155.951 15.592 155.227 15.5957 154.507 15.5957H154.503Z" fill="black"/>
<path d="M182.508 16.7521C180.567 16.7521 178.631 16.7521 176.69 16.7521C176.05 16.7521 176.046 16.7521 176.231 17.3376C176.758 19.0021 177.888 20.0959 179.586 20.6188C180.768 20.9834 181.981 21.0018 183.186 20.7219C184.232 20.4789 185.093 19.9375 185.737 19.0905C185.801 19.0095 185.862 18.9248 185.93 18.8475C185.979 18.7886 186.048 18.7775 186.12 18.8033C186.169 18.8217 186.214 18.8475 186.26 18.8733C186.859 19.201 187.457 19.5288 188.053 19.8602C188.272 19.9817 188.28 20.0185 188.14 20.2174C187.204 21.5468 185.957 22.4896 184.372 22.9793C183.148 23.3586 181.894 23.4618 180.613 23.3476C179.514 23.2482 178.456 23.0088 177.478 22.4969C175.295 21.359 173.946 19.6061 173.476 17.2382C173.203 15.8719 173.253 14.5094 173.628 13.1652C174.291 10.7789 176.406 8.42944 179.521 7.86969C180.715 7.6561 181.898 7.63032 183.091 7.87706C184.441 8.15325 185.6 8.76456 186.567 9.71467C187.927 11.0514 188.723 12.6571 188.936 14.5315C189.011 15.198 189.042 15.8646 188.928 16.5274C188.898 16.6968 188.864 16.7337 188.693 16.741C188.534 16.7484 188.375 16.7484 188.215 16.7484C186.313 16.7484 184.41 16.7484 182.504 16.7484L182.508 16.7521ZM181.143 14.4615C182.621 14.4615 184.103 14.4615 185.581 14.4615C185.722 14.4615 185.862 14.4615 186.006 14.4615C186.18 14.4542 186.23 14.3989 186.207 14.2406C186.154 13.8465 186.032 13.4746 185.881 13.1063C185.324 11.7217 184.289 10.8305 182.845 10.3923C182.061 10.1566 181.253 10.1308 180.438 10.245C178.649 10.4991 177.346 11.3976 176.546 12.9774C176.353 13.3641 176.224 13.7729 176.133 14.1927C176.091 14.3842 176.144 14.4505 176.334 14.4615C176.474 14.4689 176.614 14.4652 176.758 14.4652C178.221 14.4652 179.68 14.4652 181.143 14.4652V14.4615Z" fill="black"/>
<path d="M63.1339 7.55664C66.0257 7.56769 68.258 8.68351 69.9408 10.8452C70.7784 11.9205 71.2407 13.1431 71.4075 14.4799C71.5818 15.883 71.4265 17.2455 70.8996 18.5639C70.0355 20.7256 67.716 23.0088 64.5552 23.4286C63.3348 23.5906 62.1296 23.5575 60.9395 23.2408C57.9757 22.4527 55.6714 20.048 55.1408 17.1093C54.7315 14.8592 55.0991 12.7344 56.509 10.8599C57.8961 9.01494 59.7646 7.91385 62.1068 7.61556C62.4745 7.56769 62.8459 7.57137 63.1263 7.55664H63.1339ZM68.4551 15.5589C68.4551 15.4742 68.4551 15.3895 68.4551 15.3011C68.4286 12.8191 66.4691 10.8636 64.252 10.499C63.7441 10.4143 63.2362 10.407 62.7246 10.4401C61.7657 10.499 60.9054 10.812 60.1322 11.3644C57.8544 12.9958 57.6308 15.6215 58.3471 17.4333C59.5561 20.4936 62.9785 21.3811 65.5595 20.1511C67.4886 19.2341 68.4323 17.6506 68.4513 15.5589H68.4551Z" fill="black"/>
<path d="M55.0839 23.3071C54.8717 23.1266 54.6557 23.1377 54.4434 23.1377C53.6513 23.1377 52.8554 23.1266 52.0633 23.145C51.7222 23.1524 51.4759 23.053 51.2333 22.8062C49.2739 20.8103 47.3031 18.829 45.3323 16.8441C45.2223 16.7337 45.1086 16.6269 44.9912 16.5201C44.9381 16.4722 44.8471 16.5201 44.8433 16.5937C44.8358 16.7484 44.8358 16.9031 44.8358 17.054C44.8358 18.888 44.8358 20.7182 44.8358 22.5521C44.8358 23.1634 44.8888 23.134 44.2332 23.134C43.6154 23.134 42.9976 23.134 42.3836 23.134C42.2775 23.134 42.1714 23.134 42.0653 23.1266C41.9061 23.1156 41.8606 23.064 41.8492 22.8946C41.8417 22.7768 41.8417 22.6552 41.8417 22.5337C41.8417 15.8903 41.8417 9.24327 41.8417 2.59989C41.8417 2.58148 41.8417 2.56675 41.8417 2.54833C41.8417 1.97017 41.8189 1.9849 42.4215 1.9849C43.1075 1.9849 43.7973 1.9849 44.4833 1.9849C44.813 1.9849 44.8282 2.01436 44.8358 2.34579C44.8358 2.48205 44.8358 2.6183 44.8358 2.75824C44.8358 6.33771 44.8358 9.91719 44.8358 13.4967C44.8358 13.6661 44.8396 13.8391 44.8471 14.0085C44.8471 14.0822 44.9419 14.1264 44.9949 14.0785C45.1011 13.9864 45.2034 13.8944 45.3019 13.7986C47.1249 11.9868 48.9479 10.1713 50.7709 8.35945C51.2826 7.85126 51.1196 7.92859 51.817 7.92491C52.7341 7.92122 53.6513 7.92491 54.5647 7.92491C54.6974 7.92491 54.849 7.87703 54.9589 8.00961C54.9172 8.17164 54.777 8.25634 54.667 8.36313C52.8971 10.1087 51.1272 11.8505 49.3572 13.5924C48.8873 14.0564 48.4135 14.5167 47.9436 14.9807C47.8678 15.0544 47.7996 15.1317 47.7313 15.2091C47.6783 15.268 47.6859 15.338 47.7351 15.3932C47.8033 15.4705 47.8754 15.5442 47.9512 15.6178C50.2782 17.9784 52.6053 20.3463 54.9437 22.6994C55.1067 22.8652 55.1143 23.0125 55.0764 23.2923L55.0839 23.3071Z" fill="black"/>
<path d="M77.3616 9.51583C77.5018 9.50478 77.5511 9.37958 77.6307 9.29856C78.6805 8.19747 79.9956 7.66717 81.5192 7.57879C82.3871 7.53092 83.2513 7.56774 84.0851 7.82184C86.0331 8.41842 87.2762 9.69996 87.8713 11.5854C88.0835 12.2594 88.1821 12.959 88.1821 13.6624C88.1896 16.6748 88.1858 19.6908 88.1858 22.7032C88.1858 22.7879 88.182 22.8726 88.1745 22.9609C88.1669 23.0604 88.0987 23.1119 88.0077 23.1267C87.9395 23.1377 87.8675 23.1377 87.7955 23.1377C87.0564 23.1377 86.3136 23.1377 85.5745 23.1377C85.4874 23.1377 85.4002 23.1304 85.313 23.1156C85.241 23.1009 85.1842 23.0493 85.1804 22.9757C85.169 22.821 85.1652 22.6663 85.1652 22.5154C85.1652 19.7755 85.1652 17.0357 85.1652 14.2958C85.1652 13.8171 85.1652 13.3384 85.0477 12.867C84.718 11.5339 83.869 10.72 82.4857 10.4475C81.6557 10.2818 80.8332 10.326 80.0335 10.5801C78.8586 10.9557 78.0362 11.7033 77.6269 12.8523C77.4488 13.3568 77.3426 13.876 77.3123 14.41C77.2934 14.7341 77.2934 15.0618 77.2934 15.3859C77.2934 17.7133 77.2934 20.0443 77.2934 22.3717C77.2934 22.4933 77.2934 22.6111 77.2934 22.7326C77.2858 23.1156 77.2744 23.134 76.8727 23.134C76.1488 23.1377 75.4287 23.134 74.7048 23.134C74.6176 23.134 74.5267 23.134 74.4433 23.1193C74.3485 23.1046 74.2879 23.042 74.2841 22.9425C74.2803 22.8247 74.2765 22.7032 74.2765 22.5816C74.2765 17.8716 74.2765 13.1616 74.2765 8.45157C74.2765 7.93232 74.2765 7.92864 74.7844 7.92864C75.4552 7.92864 76.1223 7.92864 76.7931 7.92864C76.8651 7.92864 76.9333 7.92864 77.0053 7.92864C77.2403 7.94337 77.2896 7.98019 77.2934 8.20115C77.3009 8.54363 77.2934 8.88611 77.3009 9.22859C77.3009 9.32434 77.2593 9.43482 77.3692 9.50847L77.3616 9.51583Z" fill="black"/>
<path d="M93.1204 18.3688C93.1849 18.494 93.219 18.5529 93.2455 18.6155C93.6662 19.7055 94.5152 20.3169 95.6332 20.6041C96.4481 20.814 97.2743 20.7993 98.0929 20.6078C98.3507 20.5489 98.597 20.4531 98.832 20.3353C99.3626 20.0701 99.6506 19.6466 99.7037 19.0758C99.7454 18.6229 99.6089 18.2325 99.264 17.9158C99.0973 17.7611 98.9002 17.647 98.6993 17.5402C98.0929 17.2198 97.4448 16.9988 96.7778 16.8331C95.9402 16.6232 95.1178 16.3802 94.2991 16.1113C93.4653 15.8351 92.7452 15.3896 92.1426 14.7672C91.5628 14.1706 91.2482 13.4599 91.1762 12.6497C91.1345 12.1894 91.1345 11.7254 91.2292 11.2687C91.4225 10.3076 91.9266 9.5232 92.6884 8.88979C93.5298 8.1901 94.5076 7.77397 95.5915 7.62667C96.774 7.46463 97.9489 7.52355 99.0859 7.91391C100.431 8.37791 101.489 9.1844 102.213 10.3923C102.273 10.4954 102.33 10.6022 102.383 10.709C102.444 10.8231 102.398 10.9042 102.292 10.9631C102.277 10.9705 102.262 10.9778 102.247 10.9889C101.542 11.3755 100.833 11.7622 100.128 12.1452C99.9652 12.2336 99.9311 12.2152 99.8439 12.0568C99.8098 11.9979 99.7833 11.9316 99.7492 11.8727C99.3512 11.1104 98.7259 10.6206 97.8693 10.4181C97.1189 10.2413 96.3723 10.2229 95.6256 10.4475C95.3717 10.5249 95.1329 10.6353 94.9131 10.7753C94.4697 11.0588 94.2309 11.4529 94.193 11.9684C94.1589 12.4472 94.3067 12.8486 94.6933 13.1505C94.8563 13.2794 95.0382 13.3862 95.2239 13.4857C95.7962 13.795 96.414 14.0012 97.0431 14.1633C97.8958 14.3805 98.741 14.6199 99.5786 14.885C100.363 15.1355 101.042 15.5479 101.629 16.1113C102.175 16.6343 102.52 17.2566 102.664 17.9821C102.785 18.6081 102.785 19.2452 102.652 19.8713C102.463 20.7551 102.008 21.4953 101.307 22.0882C100.545 22.7326 99.662 23.1377 98.6766 23.3403C97.1454 23.6496 95.6256 23.6091 94.1437 23.1046C92.768 22.6369 91.6689 21.812 90.926 20.5746C90.8123 20.3831 90.7252 20.1732 90.6228 19.9781C90.5622 19.8602 90.6077 19.7829 90.7138 19.724C91.5059 19.2784 92.298 18.8365 93.1242 18.3761L93.1204 18.3688Z" fill="black"/>
<path d="M106.291 12.4509C106.291 9.14758 106.291 5.84062 106.291 2.53734C106.291 2.40109 106.291 2.26483 106.291 2.12489C106.298 1.73454 106.298 1.73086 106.708 1.72717C107.378 1.72717 108.046 1.72717 108.716 1.72717C108.925 1.72717 108.966 1.77136 108.978 1.96654C108.985 2.12121 108.985 2.27588 108.985 2.42686C108.985 3.84834 108.985 5.26982 108.985 6.6913C108.985 7.3468 108.974 7.27315 109.588 7.27683C110.24 7.27683 110.892 7.27683 111.544 7.27683C111.631 7.27683 111.722 7.27683 111.809 7.27683C112.021 7.28788 112.063 7.32102 112.074 7.50883C112.082 7.6635 112.078 7.81817 112.078 7.97284C112.078 8.48472 112.078 9.00028 112.078 9.51216C112.078 9.87305 112.052 9.89883 111.695 9.90251C111.043 9.90619 110.392 9.90251 109.74 9.90251C108.902 9.90619 108.989 9.81045 108.985 10.6538C108.985 13.7177 108.985 16.7853 108.985 19.8492C108.985 20.6041 108.948 20.5194 109.66 20.5194C110.93 20.5231 112.199 20.5194 113.465 20.5194C113.605 20.5194 113.746 20.5194 113.89 20.5268C113.992 20.5305 114.049 20.5857 114.06 20.6851C114.068 20.7367 114.072 20.7882 114.072 20.8398C114.072 21.5063 114.075 22.1766 114.072 22.8431C114.072 23.1046 114.03 23.134 113.761 23.1451C113.674 23.1488 113.586 23.1451 113.496 23.1451C111.294 23.1451 109.088 23.1451 106.886 23.1451C106.23 23.1451 106.291 23.1672 106.287 22.5559C106.287 19.1826 106.287 15.8094 106.287 12.4361L106.291 12.4509Z" fill="black"/>
<path d="M164.971 12.4692C164.971 9.11068 164.971 5.75585 164.971 2.39733C164.971 1.6424 164.911 1.73078 165.642 1.7271C166.222 1.72342 166.806 1.7271 167.386 1.7271C167.624 1.7271 167.659 1.76393 167.662 1.99961C167.67 2.39365 167.662 2.78769 167.662 3.18172C167.662 4.33069 167.662 5.47597 167.662 6.62494C167.662 6.74646 167.662 6.86431 167.662 6.98583C167.674 7.23625 167.708 7.27307 167.984 7.27676C168.742 7.28044 169.5 7.27676 170.258 7.27676C170.755 7.27676 170.744 7.26203 170.744 7.76286C170.744 8.32629 170.744 8.89341 170.744 9.45685C170.744 9.89876 170.736 9.90244 170.258 9.90612C169.572 9.90612 168.883 9.90612 168.197 9.90612C167.666 9.90612 167.662 9.9098 167.662 10.407C167.662 13.6108 167.662 16.8147 167.662 20.0148C167.662 20.5304 167.662 20.5267 168.185 20.5267C169.542 20.5267 170.899 20.5267 172.256 20.5267C172.752 20.5267 172.741 20.5156 172.741 21.0128C172.741 21.6278 172.741 22.2465 172.741 22.8615C172.741 23.0971 172.695 23.134 172.472 23.1487C172.351 23.1561 172.225 23.1524 172.1 23.1524C169.933 23.1524 167.765 23.1524 165.597 23.1524C165.544 23.1524 165.491 23.1524 165.438 23.1524C164.975 23.145 164.968 23.145 164.968 22.6884C164.968 20.1179 164.968 17.5512 164.968 14.9807C164.968 14.1411 164.968 13.3015 164.968 12.4618L164.971 12.4692Z" fill="black"/>
<path d="M140.382 12.1084C140.382 8.68357 140.382 5.25877 140.382 1.83396C140.382 1.2116 140.325 1.24107 140.973 1.24107C141.538 1.24107 142.102 1.24107 142.663 1.24107C142.751 1.24107 142.838 1.24107 142.925 1.25211C143.027 1.26316 143.08 1.32945 143.084 1.42519C143.092 1.56145 143.092 1.69771 143.092 1.83764C143.092 8.68725 143.092 15.5369 143.092 22.3865C143.092 23.0604 143.156 22.9978 142.474 23.0015C141.894 23.0015 141.31 23.0015 140.731 23.0015C140.389 23.0015 140.389 22.9904 140.382 22.6442C140.382 22.508 140.382 22.3717 140.382 22.2318C140.382 18.8586 140.382 15.4853 140.382 12.1121V12.1084Z" fill="black"/>
<path d="M136.353 12.1636C136.353 15.5699 136.353 18.98 136.353 22.3864C136.353 23.0677 136.41 22.9977 135.735 23.0014C135.155 23.0014 134.572 23.0014 133.992 23.0014C133.692 23.0014 133.674 22.9756 133.662 22.67C133.658 22.5484 133.662 22.4306 133.662 22.3091C133.662 15.511 133.662 8.71297 133.662 1.91492C133.662 1.17104 133.62 1.24469 134.341 1.24469C134.92 1.24469 135.504 1.24469 136.084 1.24469C136.292 1.24469 136.338 1.29256 136.349 1.48037C136.357 1.63504 136.353 1.78971 136.353 1.9407C136.353 5.34709 136.353 8.75716 136.353 12.1636Z" fill="black"/>
</g>
<defs>
<clipPath id="clip0_462_2515">
<rect width="189" height="31" fill="white"/>
</clipPath>
</defs>
</svg>
