<svg xmlns="http://www.w3.org/2000/svg" width="24" height="24" viewBox="0 0 24 24" fill="none">
  <path d="M19.2026 15.6918L18.4215 10.6147C18.0462 8.17556 15.9475 6.375 13.4796 6.375L10.5204 6.375C8.05251 6.375 5.95376 8.17555 5.57851 10.6147L4.79742 15.6918C4.64104 16.7083 5.42751 17.625 6.45596 17.625C7.03378 17.625 7.57094 17.3277 7.87781 16.8381L9.68142 13.9605C10.0472 13.377 10.6874 13.0227 11.3761 13.0227L12.6239 13.0227C13.3126 13.0227 13.9528 13.377 14.3186 13.9605L16.1222 16.8381C16.4291 17.3277 16.9662 17.625 17.544 17.625C18.5725 17.625 19.359 16.7083 19.2026 15.6918Z" stroke="#1F1F1F" stroke-linecap="round" stroke-linejoin="round"/>
</svg>