<svg xmlns="http://www.w3.org/2000/svg" width="17" height="16" viewBox="0 0 17 16" fill="none">
  <path d="M12.6109 9.20695C12.0055 9.20695 11.5147 8.71619 11.5147 8.1108C11.5147 7.50541 12.0055 7.01465 12.6109 7.01465C13.2163 7.01465 13.707 7.50541 13.707 8.1108C13.707 8.71619 13.2163 9.20695 12.6109 9.20695Z" fill="#595D62"/>
  <path d="M4.58154 9.20699C3.97615 9.20699 3.48539 8.71623 3.48539 8.11084C3.48539 7.50545 3.97615 7.01469 4.58154 7.01469C5.18693 7.01469 5.67769 7.50545 5.67769 8.11084C5.67769 8.71623 5.18693 9.20699 4.58154 9.20699Z" fill="#595D62"/>
  <path d="M8.58155 9.20695C7.97616 9.20695 7.4854 8.71619 7.4854 8.1108C7.4854 7.50541 7.97616 7.01465 8.58155 7.01465C9.18694 7.01465 9.67771 7.50541 9.67771 8.1108C9.67771 8.71619 9.18694 9.20695 8.58155 9.20695Z" fill="#595D62"/>
</svg>