<svg xmlns="http://www.w3.org/2000/svg" width="18" height="18" viewBox="0 0 18 18" fill="none">
  <path d="M3.65625 9.2946H4.03125H3.65625ZM3.65625 13.5247H3.28125H3.65625ZM13.5216 14.3437V13.9687V14.3437ZM4.47837 14.3438V14.7188H4.47837L4.47837 14.3438ZM14.3438 9.29462H13.9688H14.3438ZM14.3438 13.5247H14.7188H14.3438ZM13.9087 8.18461L13.6334 8.43923L13.9087 8.18461ZM10.2092 4.18437L9.93389 4.43898V4.43898L10.2092 4.18437ZM7.7908 4.18436L8.06611 4.43898L7.7908 4.18436ZM4.09128 8.18459L3.81597 7.92998H3.81597L4.09128 8.18459ZM7.35577 10.2484H7.73077H7.35577ZM7.35577 13.9342H6.98077H7.35577ZM10.2332 14.3437V13.9687V14.3437ZM7.76683 14.3437V14.7187V14.3437ZM10.6442 10.2484H11.0192H10.6442ZM10.6442 13.9342H10.2692H10.6442ZM10.2332 9.83891L10.2332 10.2139L10.2332 9.83891ZM7.76683 9.8389L7.76683 10.2139H7.76683L7.76683 9.8389ZM3.28125 9.2946L3.28125 13.5247H4.03125L4.03125 9.2946H3.28125ZM13.5216 13.9687L4.47837 13.9688L4.47837 14.7188L13.5216 14.7187V13.9687ZM13.9688 9.29462V13.5247H14.7188V9.29462H13.9688ZM14.184 7.93L10.4845 3.92975L9.93389 4.43898L13.6334 8.43923L14.184 7.93ZM7.51549 3.92975L3.81597 7.92998L4.36659 8.43921L8.06611 4.43898L7.51549 3.92975ZM10.4845 3.92975C9.68485 3.06509 8.31515 3.06508 7.51549 3.92975L8.06611 4.43898C8.56888 3.89534 9.43112 3.89534 9.93389 4.43898L10.4845 3.92975ZM14.7188 9.29462C14.7188 8.78876 14.5277 8.30164 14.184 7.93L13.6334 8.43923C13.8492 8.67253 13.9688 8.9779 13.9688 9.29462H14.7188ZM4.03125 9.2946C4.03125 8.97788 4.15082 8.67251 4.36659 8.43921L3.81597 7.92998C3.47226 8.30162 3.28125 8.78874 3.28125 9.2946H4.03125ZM3.28125 13.5247C3.28125 14.1855 3.81853 14.7188 4.47837 14.7188V13.9688C4.23011 13.9688 4.03125 13.7686 4.03125 13.5247H3.28125ZM13.5216 14.7187C14.1815 14.7187 14.7188 14.1855 14.7188 13.5247H13.9688C13.9688 13.7686 13.7699 13.9687 13.5216 13.9687V14.7187ZM6.98077 10.2484L6.98077 13.9342H7.73077V10.2484H6.98077ZM10.2332 13.9687H7.76683V14.7187H10.2332V13.9687ZM10.2692 10.2484L10.2692 13.9342H11.0192L11.0192 10.2484H10.2692ZM10.2332 9.46391L7.76683 9.4639L7.76683 10.2139L10.2332 10.2139L10.2332 9.46391ZM11.0192 10.2484C11.0192 9.81384 10.666 9.46391 10.2332 9.46391L10.2332 10.2139C10.2544 10.2139 10.2692 10.2307 10.2692 10.2484H11.0192ZM7.73077 10.2484C7.73077 10.2307 7.7456 10.2139 7.76683 10.2139L7.76683 9.4639C7.33402 9.4639 6.98077 9.81384 6.98077 10.2484H7.73077ZM6.98077 13.9342C6.98077 14.3688 7.33402 14.7187 7.76683 14.7187V13.9687C7.7456 13.9687 7.73077 13.952 7.73077 13.9342H6.98077ZM10.2332 14.7187C10.666 14.7187 11.0192 14.3688 11.0192 13.9342H10.2692C10.2692 13.952 10.2544 13.9687 10.2332 13.9687V14.7187Z" fill="white"/>
</svg>