<svg xmlns="http://www.w3.org/2000/svg" width="24" height="24" viewBox="0 0 24 24" fill="none">
  <path d="M12 5.89286C13.7902 5.89286 15.5071 6.58991 16.773 7.83066C17.8576 8.89372 18.5349 10.2813 18.7067 11.7605C18.7545 12.172 18.4142 12.5089 18 12.5089H12M12 5.89286C10.2098 5.89286 8.49291 6.5899 7.22704 7.83066C6.14246 8.89372 5.46508 10.2813 5.29331 11.7605C5.24553 12.172 5.58579 12.5089 6.00001 12.5089L12 12.5089M12 5.89286L12 4.875M12 12.5089L12 16.0179C12 17.1718 11.0701 18.1072 9.92306 18.1072C8.776 18.1072 7.84613 17.1718 7.84613 16.0179" stroke="white" stroke-linecap="round"/>
</svg>