<svg xmlns="http://www.w3.org/2000/svg" width="16" height="16" viewBox="0 0 16 16" fill="none">
  <path d="M11.6543 5.44133C12.2597 5.44133 12.7505 4.95057 12.7505 4.34518C12.7505 3.73979 12.2597 3.24902 11.6543 3.24902C11.0489 3.24902 10.5582 3.73979 10.5582 4.34518M11.6543 5.44133C11.0489 5.44133 10.5582 4.95057 10.5582 4.34518M11.6543 5.44133V10.5567M10.5582 4.34518H5.4428M10.5582 11.6529C10.5582 12.2583 11.0489 12.749 11.6543 12.749C12.2597 12.749 12.7505 12.2583 12.7505 11.6529C12.7505 11.0475 12.2597 10.5567 11.6543 10.5567M10.5582 11.6529C10.5582 11.0475 11.0489 10.5567 11.6543 10.5567M10.5582 11.6529H5.4428M5.4428 4.34518C5.4428 4.95057 4.95203 5.44133 4.34664 5.44133M5.4428 4.34518C5.4428 3.73979 4.95203 3.24902 4.34664 3.24902C3.74125 3.24902 3.25049 3.73979 3.25049 4.34518C3.25049 4.95057 3.74125 5.44133 4.34664 5.44133M4.34664 5.44133V10.5567M5.4428 11.6529C5.4428 12.2583 4.95203 12.749 4.34664 12.749C3.74125 12.749 3.25049 12.2583 3.25049 11.6529C3.25049 11.0475 3.74125 10.5567 4.34664 10.5567M5.4428 11.6529C5.4428 11.0475 4.95203 10.5567 4.34664 10.5567" stroke="white" stroke-width="0.75" stroke-linecap="round" stroke-linejoin="round"/>
</svg>